<?xml version="1.0" encoding="utf-8"?>
<!-- Generator: Adobe Illustrator 19.0.0, SVG Export Plug-In . SVG Version: 6.00 Build 0)  -->
<svg version="1.1" id="Layer_1" xmlns="http://www.w3.org/2000/svg" xmlns:xlink="http://www.w3.org/1999/xlink" x="0px" y="0px"
	 viewBox="0 0 72 72" style="enable-background:new 0 0 72 72;" xml:space="preserve">
<style type="text/css">
	.st0{fill:#F2F2F7;}
	.st1{fill:#655DA8;}
</style>
<g id="XMLID_3_">
	<g id="XMLID_21_">
		<path id="XMLID_25_" class="st0" d="M-134.8-6.1c4.8,0,4.8-7.5,0-7.5C-139.7-13.6-139.7-6.1-134.8-6.1L-134.8-6.1z"/>
	</g>
</g>
<g id="XMLID_7_">
	<circle id="XMLID_1_" class="st1" cx="36" cy="36" r="36"/>
	<g id="XMLID_6_">
		<g id="XMLID_2_">
			<g id="XMLID_31_">
				<path id="XMLID_38_" class="st0" d="M14.4,29.6c15.1-2.6,29.9-1.5,42.4,8.3c5,4,12.1-3.1,7.1-7.1C48.2,18.6,30.7,16.7,11.7,20
					C5.4,21.1,8,30.7,14.4,29.6L14.4,29.6z"/>
			</g>
		</g>
		<g id="XMLID_13_">
			<g id="XMLID_39_">
				<path id="XMLID_62_" class="st0" d="M18.3,41.8c11.4-1.1,21.8-1.9,31.1,6.1c3.6,3.1,9-2.1,5.3-5.3c-4.8-4.1-10.3-7.2-16.5-8.5
					c-6.6-1.4-13.2-0.4-19.9,0.2C13.6,34.8,13.5,42.3,18.3,41.8L18.3,41.8z"/>
			</g>
		</g>
		<g id="XMLID_5_">
			<g id="XMLID_63_">
				<path id="XMLID_67_" class="st0" d="M19.5,52.3c8-0.8,15.9,0.3,23.3,3.6c2.9,1.3,5.5-3,2.5-4.3c-8.2-3.7-16.8-5.2-25.8-4.3
					C16.3,47.6,16.3,52.6,19.5,52.3L19.5,52.3z"/>
			</g>
		</g>
	</g>
</g>
</svg>
