<?xml version="1.0" encoding="utf-8"?>
<!-- Generator: Adobe Illustrator 19.0.0, SVG Export Plug-In . SVG Version: 6.00 Build 0)  -->
<svg version="1.1" id="Layer_1" xmlns="http://www.w3.org/2000/svg" xmlns:xlink="http://www.w3.org/1999/xlink" x="0px" y="0px"
	 viewBox="0 0 144 144" style="enable-background:new 0 0 144 144;" xml:space="preserve">
<style type="text/css">
	.st0{fill:#655CA8;}
	.st1{fill:#FFFFFF;}
</style>
<circle class="st0" cx="72" cy="72" r="72"/>
<g>
	<path class="st1" d="M52,115.9c-12.5,0-24.2-3.7-34-10c1.7,0.2,3.5,0.3,5.3,0.3c10.4,0,19.9-3.5,27.5-9.5
		c-9.7-0.2-17.9-6.6-20.7-15.4c1.4,0.3,2.7,0.4,4.2,0.4c2,0,4-0.3,5.8-0.8C30,79,22.3,70,22.3,59.3c0-0.1,0-0.2,0-0.3
		c3,1.7,6.4,2.7,10,2.8c-5.9-4-9.9-10.8-9.9-18.4c0-4.1,1.1-7.9,3-11.1c10.9,13.4,27.3,22.2,45.7,23.2c-0.4-1.6-0.6-3.3-0.6-5
		c0-12.2,9.9-22.2,22.2-22.2c6.4,0,12.1,2.7,16.2,7c5-1,9.8-2.8,14.1-5.4c-1.7,5.2-5.2,9.5-9.7,12.3c4.5-0.5,8.8-1.7,12.7-3.5
		c-3,4.4-6.7,8.3-11.1,11.5c0,1,0.1,1.9,0.1,2.9C115,82.1,92.7,115.9,52,115.9"/>
</g>
</svg>
