<?xml version="1.0" encoding="utf-8"?>
<!-- Generator: Adobe Illustrator 19.0.0, SVG Export Plug-In . SVG Version: 6.00 Build 0)  -->
<svg version="1.1" id="Layer_1" xmlns="http://www.w3.org/2000/svg" xmlns:xlink="http://www.w3.org/1999/xlink" x="0px" y="0px"
	 viewBox="0 0 144 144" style="enable-background:new 0 0 144 144;" xml:space="preserve">
<style type="text/css">
	.st0{fill:#655CA8;}
	.st1{fill-rule:evenodd;clip-rule:evenodd;fill:#FFFFFF;}
</style>
<path class="st0" d="M0,72C0,32.2,32.2,0,72,0s72,32.2,72,72"/>
<path class="st0" d="M144,72c0,39.8-32.2,72-72,72S0,111.8,0,72"/>
<g>
	<g>
		<path class="st1" d="M45.2,21.6c2.1,0,4.1,0,6.2,0c1.3,4.8,2.5,9.6,3.9,14.2c1.5-4.5,2.4-9.7,3.9-14.2c1.9,0,3.8,0,5.7,0
			c-0.7,3.9-2,7.6-3.2,11.5c-1.1,3.6-2.9,7.5-3.4,11.2c-0.7,5,0.7,10.3-0.2,15.8c-1.9,0-3.8,0-5.7,0c-0.4-5.8,0.5-10.8,0-15.6
			c-0.9-8.2-5.6-14.7-6.9-22.2C45.3,22.1,45.2,21.9,45.2,21.6z"/>
		<path class="st1" d="M70.6,31.2c5.4-1.1,8.8,2.1,9.4,6.9c0.7,5.9,0.5,16.2-1.1,19c-2.3,4-10.4,5.2-13.1-0.2
			c-2.2-4.4-1.7-20.4,0.7-23.4C67.4,32.4,68.9,31.6,70.6,31.2z M72,55.1c3.3,0.5,2.8-4.1,2.8-8.3c0-5.3,0.5-13.6-4.4-9.4
			C70.9,40.9,68.2,54.5,72,55.1z"/>
		<path class="st1" d="M89.2,31.2c0.4,7.8-0.9,17.2,0.7,23.8c2.2,0.2,2.8-1.2,3.7-2.3c0-7.2,0-14.4,0-21.5c1.8,0,3.5,0,5.3,0
			c0,9.6,0,19.3,0,28.9c-1.8,0-3.5,0-5.3,0c0-0.8,0-1.7,0-2.5c-1.5,1-4.9,4.6-8,2.5c-2.3-1.5-1.6-8.7-1.6-13.3c0-5.8,0-11,0-14.9
			C84.5,30.5,87.5,31.6,89.2,31.2z"/>
	</g>
	<g>
		<path class="st1" d="M102.3,94.6c0.6-1.9,0.1-4.7-0.7-6c-1-0.7-2-0.7-3.2-0.2c-1,1.2-1.5,4.1-0.9,6.2
			C99.1,94.6,100.7,94.6,102.3,94.6z"/>
		<path class="st1" d="M82.2,88.1c-1.8-0.2-2.6,0.4-3.4,1.1c0,5.7,0,11.5,0,17.2c5.3,3.8,4.8-3,4.8-8.7
			C83.5,93.4,83.9,89.2,82.2,88.1z"/>
		<path class="st1" d="M113.9,93.4c0-8.7,0.1-18.4-2.8-23.1c-3.3-5.5-8.7-5.2-16.7-5.7c-11.8-0.7-26.8-0.8-38-0.2
			c-7.3,0.3-15-0.2-19,1.8c-4.9,2.4-6,7.6-6.6,14.7c-1,10.7-1,30.3,2.5,35.8c3.5,5.4,12.1,5.2,20.6,5.5c12.7,0.4,23.9,0.5,36.7,0
			c5.8-0.2,12.7,0,16.5-2.1C114.4,116.1,113.9,104.8,113.9,93.4z M54.2,79.7c-2,0-4,0-6,0c-0.5,10.2-0.1,21.3-0.2,31.9
			c-1.8,0-3.7,0-5.5,0c0-10.6,0-21.2,0-31.9c-2,0-4,0-6,0c0.2-1.7-0.3-4,0.2-5.3c5.8,0,11.6,0,17.4,0C54.2,76.1,54.2,77.9,54.2,79.7
			z M69.3,111.5c-1.7,0-3.4,0-5,0c0-0.8,0-1.7,0-2.5c-2.2,2.4-8.7,5.4-9.4-1.4c-0.6-6,0.5-17.9,0-22.9c0-0.2,0-0.5,0-0.7
			c1.7,0,3.4,0,5,0c0,3.8,0,8.1,0,12.1c0,4-0.6,8.2,0.7,11.2c1.6,0.6,2.8-1.1,3.7-2.1c0-7.1,0-14.2,0-21.3c1.7,0,3.4,0,5,0
			C69.3,93.2,69.3,102.4,69.3,111.5z M88.4,106.7c-0.6,6.4-6.2,6.4-9.6,2.3c0,0.8,0,1.7,0,2.5c-1.7,0-3.4,0-5,0
			c0-12.4,0-24.8,0-37.1c1.7,0,3.4,0,5,0c0,3.9,0,7.8,0,11.7c3.3-3.2,8.9-3.9,9.6,2.3C88.9,93,88.8,102,88.4,106.7z M92.5,104.9
			c-0.6-5.2-0.4-16,1.4-18.6c2.9-4.1,10.8-3.5,12.8,1.1c1.5,3.3,0.3,6.7,0.7,11.2c-3.3,0-6.6,0-9.9,0c-0.4,3.4-0.9,8.8,2.3,8.9
			c2.2,0.1,2.8-2.1,2.5-5.5c1.7,0,3.4,0,5,0C108.8,114.7,93.6,114.7,92.5,104.9z"/>
	</g>
</g>
</svg>
